<svg id="visual" viewBox="0 0 1920 1080" width="1920" height="1080" xmlns="http://www.w3.org/2000/svg" xmlns:xlink="http://www.w3.org/1999/xlink" version="1.1"><rect x="0" y="0" width="1920" height="1080" fill="#f0f4fd"></rect><defs><linearGradient id="grad1_0" x1="43.8%" y1="0%" x2="100%" y2="100%"><stop offset="14.444444444444446%" stop-color="#9384f5" stop-opacity="1"></stop><stop offset="85.55555555555554%" stop-color="#9384f5" stop-opacity="1"></stop></linearGradient></defs><defs><linearGradient id="grad1_1" x1="43.8%" y1="0%" x2="100%" y2="100%"><stop offset="14.444444444444446%" stop-color="#9384f5" stop-opacity="1"></stop><stop offset="85.55555555555554%" stop-color="#f0f4fd" stop-opacity="1"></stop></linearGradient></defs><defs><linearGradient id="grad2_0" x1="0%" y1="0%" x2="56.3%" y2="100%"><stop offset="14.444444444444446%" stop-color="#9384f5" stop-opacity="1"></stop><stop offset="85.55555555555554%" stop-color="#9384f5" stop-opacity="1"></stop></linearGradient></defs><defs><linearGradient id="grad2_1" x1="0%" y1="0%" x2="56.3%" y2="100%"><stop offset="14.444444444444446%" stop-color="#f0f4fd" stop-opacity="1"></stop><stop offset="85.55555555555554%" stop-color="#9384f5" stop-opacity="1"></stop></linearGradient></defs><g transform="translate(1920, 0)"><path d="M0 540C-98.6 528.3 -197.2 516.6 -270 467.7C-342.8 418.7 -389.7 332.6 -430.4 248.5C-471.1 164.4 -505.6 82.2 -540 0L0 0Z" fill="#b4bfff"></path><path d="M0 270C-49.3 264.1 -98.6 258.3 -135 233.8C-171.4 209.4 -194.9 166.3 -215.2 124.3C-235.6 82.2 -252.8 41.1 -270 0L0 0Z" fill="#9384f5"></path></g><g transform="translate(0, 1080)"><path d="M0 -540C78.4 -499.1 156.9 -458.2 241.5 -418.3C326.1 -378.4 416.9 -339.5 467.7 -270C518.4 -200.5 529.2 -100.2 540 0L0 0Z" fill="#b4bfff"></path><path d="M0 -270C39.2 -249.5 78.4 -229.1 120.7 -209.1C163.1 -189.2 208.4 -169.8 233.8 -135C259.2 -100.2 264.6 -50.1 270 0L0 0Z" fill="#9384f5"></path></g></svg>